<svg width="196" height="24" viewBox="0 0 196 24" fill="none" xmlns="http://www.w3.org/2000/svg">
<path fill-rule="evenodd" clip-rule="evenodd" d="M92.972 21.384C94.412 21.384 95.672 21.146 96.752 20.67C97.832 20.194 98.674 19.504 99.278 18.6C99.882 17.696 100.184 16.612 100.184 15.348C100.184 14.484 100.042 13.74 99.758 13.116C99.474 12.492 99.064 11.946 98.528 11.478C97.992 11.01 97.348 10.584 96.596 10.2C95.844 9.816 95.004 9.428 94.076 9.036C93.644 8.86 93.248 8.694 92.888 8.538C92.528 8.382 92.22 8.218 91.964 8.046C91.708 7.874 91.51 7.67 91.37 7.434C91.23 7.198 91.16 6.912 91.16 6.576C91.16 6.168 91.266 5.798 91.478 5.466C91.69 5.134 91.994 4.868 92.39 4.668C92.786 4.468 93.268 4.368 93.836 4.368C94.34 4.368 94.838 4.44 95.33 4.584C95.822 4.728 96.286 4.918 96.722 5.154C97.158 5.39 97.548 5.656 97.892 5.952L99.512 2.904C99.08 2.536 98.552 2.196 97.928 1.884C97.304 1.572 96.632 1.32 95.912 1.128C95.192 0.936 94.472 0.84 93.752 0.84C92.792 0.84 91.922 1 91.142 1.32C90.362 1.64 89.69 2.072 89.126 2.616C88.562 3.16 88.128 3.78 87.824 4.476C87.52 5.172 87.368 5.9 87.368 6.66C87.368 7.3 87.478 7.878 87.698 8.394C87.918 8.91 88.216 9.372 88.592 9.78C88.968 10.188 89.398 10.546 89.882 10.854C90.366 11.162 90.876 11.436 91.412 11.676C92.132 11.988 92.774 12.274 93.338 12.534C93.902 12.794 94.378 13.058 94.766 13.326C95.154 13.594 95.448 13.894 95.648 14.226C95.848 14.558 95.948 14.96 95.948 15.432C95.948 15.952 95.824 16.386 95.576 16.734C95.328 17.082 94.99 17.344 94.562 17.52C94.134 17.696 93.64 17.784 93.08 17.784C92.48 17.784 91.914 17.698 91.382 17.526C90.85 17.354 90.356 17.138 89.9 16.878C89.444 16.618 89.032 16.344 88.664 16.056C88.296 15.768 87.98 15.508 87.716 15.276L85.724 18.492C85.98 18.74 86.328 19.028 86.768 19.356C87.208 19.684 87.734 20.002 88.346 20.31C88.958 20.618 89.652 20.874 90.428 21.078C91.204 21.282 92.052 21.384 92.972 21.384ZM48.136 21C49.544 21 50.854 20.75 52.066 20.25C53.278 19.75 54.338 19.05 55.246 18.15C56.154 17.25 56.86 16.202 57.364 15.006C57.868 13.81 58.12 12.512 58.12 11.112C58.12 9.72 57.866 8.424 57.358 7.224C56.85 6.024 56.142 4.972 55.234 4.068C54.326 3.164 53.268 2.46 52.06 1.956C50.852 1.452 49.544 1.2 48.136 1.2H42.7V21H48.136ZM47.704 17.52H46.588V4.68H47.704C48.6 4.68 49.428 4.84 50.188 5.16C50.948 5.48 51.608 5.93 52.168 6.51C52.728 7.09 53.164 7.77 53.476 8.55C53.788 9.33 53.944 10.18 53.944 11.1C53.944 12.028 53.788 12.882 53.476 13.662C53.164 14.442 52.728 15.12 52.168 15.696C51.608 16.272 50.948 16.72 50.188 17.04C49.428 17.36 48.6 17.52 47.704 17.52ZM78.06 17.592V21H67.044V1.2H78.06V4.608H70.932V9.372H77.772V12.78H70.932V17.592H78.06ZM109.168 1.2H113.056V21H109.168V1.2ZM131.748 21.384C132.916 21.384 134.044 21.186 135.132 20.79C136.22 20.394 137.196 19.834 138.06 19.11C138.924 18.386 139.606 17.526 140.106 16.53C140.606 15.534 140.856 14.432 140.856 13.224V10.224H131.7V13.236H136.896V13.536C136.896 14.152 136.76 14.72 136.488 15.24C136.216 15.76 135.848 16.212 135.384 16.596C134.92 16.98 134.39 17.278 133.794 17.49C133.198 17.702 132.58 17.808 131.94 17.808C131.14 17.808 130.394 17.644 129.702 17.316C129.01 16.988 128.406 16.52 127.89 15.912C127.374 15.304 126.972 14.58 126.684 13.74C126.396 12.9 126.252 11.964 126.252 10.932C126.252 9.988 126.38 9.114 126.636 8.31C126.892 7.506 127.268 6.804 127.764 6.204C128.26 5.604 128.87 5.138 129.594 4.806C130.318 4.474 131.152 4.308 132.096 4.308C133.056 4.308 134.03 4.486 135.018 4.842C136.006 5.198 136.848 5.7 137.544 6.348L139.368 3.336C138.72 2.8 137.992 2.346 137.184 1.974C136.376 1.602 135.534 1.32 134.658 1.128C133.782 0.936 132.912 0.84 132.048 0.84C130.52 0.84 129.14 1.11 127.908 1.65C126.676 2.19 125.624 2.934 124.752 3.882C123.88 4.83 123.212 5.922 122.748 7.158C122.284 8.394 122.052 9.708 122.052 11.1C122.052 12.556 122.3 13.908 122.796 15.156C123.292 16.404 123.98 17.494 124.86 18.426C125.74 19.358 126.768 20.084 127.944 20.604C129.12 21.124 130.388 21.384 131.748 21.384ZM153.668 7.68V21H149.78V1.2H153.668L162.2 14.52V1.2H166.088V21H162.2L153.668 7.68ZM185.032 21.384C186.416 21.384 187.712 21.12 188.92 20.592C190.128 20.064 191.188 19.33 192.1 18.39C193.012 17.45 193.726 16.358 194.242 15.114C194.758 13.87 195.016 12.536 195.016 11.112C195.016 9.688 194.758 8.354 194.242 7.11C193.726 5.866 193.012 4.774 192.1 3.834C191.188 2.894 190.128 2.16 188.92 1.632C187.712 1.104 186.416 0.84 185.032 0.84C183.648 0.84 182.352 1.104 181.144 1.632C179.936 2.16 178.876 2.894 177.964 3.834C177.052 4.774 176.338 5.866 175.822 7.11C175.306 8.354 175.048 9.688 175.048 11.112C175.048 12.536 175.306 13.87 175.822 15.114C176.338 16.358 177.052 17.45 177.964 18.39C178.876 19.33 179.936 20.064 181.144 20.592C182.352 21.12 183.648 21.384 185.032 21.384ZM182.71 17.16C183.418 17.48 184.188 17.64 185.02 17.64C185.868 17.64 186.644 17.48 187.348 17.16C188.052 16.84 188.664 16.388 189.184 15.804C189.704 15.22 190.108 14.53 190.396 13.734C190.684 12.938 190.828 12.064 190.828 11.112C190.828 10.16 190.684 9.286 190.396 8.49C190.108 7.694 189.704 7.004 189.184 6.42C188.664 5.836 188.052 5.384 187.348 5.064C186.644 4.744 185.868 4.584 185.02 4.584C184.188 4.584 183.418 4.744 182.71 5.064C182.002 5.384 181.388 5.836 180.868 6.42C180.348 7.004 179.946 7.694 179.662 8.49C179.378 9.286 179.236 10.16 179.236 11.112C179.236 12.064 179.378 12.938 179.662 13.734C179.946 14.53 180.348 15.22 180.868 15.804C181.388 16.388 182.002 16.84 182.71 17.16Z" fill="#333136"/>
<path d="M12 0C5.37258 0 0 5.37258 0 12C0 18.6274 5.37258 24 12 24C18.6274 24 24 18.6274 24 12C24 5.37258 18.6274 0 12 0Z" fill="url(#paint0_angular_44_2)"/>
<defs>
<radialGradient id="paint0_angular_44_2" cx="0" cy="0" r="1" gradientUnits="userSpaceOnUse" gradientTransform="translate(12 12) rotate(-90) scale(12)">
<stop stop-color="#E7816B" stop-opacity="0.01"/>
<stop offset="0.999287" stop-color="#E7816B"/>
</radialGradient>
</defs>
</svg>
